<svg xmlns="http://www.w3.org/2000/svg" xmlns:xlink="http://www.w3.org/1999/xlink"><defs><symbol viewBox="0 0 10 16" id="arrow-right-black">
    <path d="M1 15.071 8.071 8 1 .929" stroke="#686868" stroke-width="1.5" fill="none" fill-rule="evenodd" />
</symbol><symbol viewBox="0 0 264 512" id="facebook"><path d="M76.7 512V283H0v-91h76.7v-71.7C76.7 42.4 124.3 0 193.8 0c33.3 0 61.9 2.5 70.2 3.6V85h-48.2c-37.8 0-45.1 18-45.1 44.3V192H256l-11.7 91h-73.6v229" /></symbol><symbol viewBox="0 0 95 95" fill="none" id="favicon">
<path d="M0 47.3C0 32.5 0 17.6 0 2.8C0 0.699999 0.3 0 2.7 0C32.5 0.1 62.2 0.1 91.9 0C94.1 0 94.7 0.500001 94.6 2.7C94.4 7.2 94.4 11.7 94.6 16.2C94.7 18.1 94 18.5 92.2 18.5C68.7 18.4 45.2 18.4 21.7 18.5C17.9 18.5 18.4 18 18.4 21.8C18.4 45.1 18.4 68.5 18.5 91.8C18.5 94.3 17.8 94.9 15.5 94.8C11.1 94.6 6.7 94.7 2.3 94.8C0.5 94.9 0.1 94.3 0.1 92.6C0.1 77.4 0 62.3 0 47.3Z" fill="#3B6258" />
<path d="M38.7 66.8C38.7 58.2 38.7 49.6 38.7 41.1C38.7 39.4 39.2 38.8 40.9 38.8C58.1 38.9 75.2 38.9 92.4 38.8C94.1 38.8 94.7 39.2 94.7 41C94.6 45.7 94.6 50.3 94.7 55C94.7 56.9 94.1 57.4 92.3 57.3C81.6 57.2 70.8 57.3 60.1 57.2C57.7 57.2 57.2 58 57.2 60.2C57.3 70.9 57.2 81.5 57.3 92.2C57.3 94.1 56.9 94.8 54.8 94.8C50.4 94.6 46 94.6 41.6 94.8C39.4 94.9 38.7 94.3 38.7 92C38.7 83.6 38.7 75.2 38.7 66.8Z" fill="#85C3AB" />
</symbol><symbol viewBox="0 0 448 512" id="instagram"><path d="M224.1 141c-63.6 0-114.9 51.3-114.9 114.9s51.3 114.9 114.9 114.9S339 319.5 339 255.9 287.7 141 224.1 141zm0 189.6c-41.1 0-74.7-33.5-74.7-74.7s33.5-74.7 74.7-74.7 74.7 33.5 74.7 74.7-33.6 74.7-74.7 74.7zm146.4-194.3c0 14.9-12 26.8-26.8 26.8-14.9 0-26.8-12-26.8-26.8s12-26.8 26.8-26.8 26.8 12 26.8 26.8zm76.1 27.2c-1.7-35.9-9.9-67.7-36.2-93.9-26.2-26.2-58-34.4-93.9-36.2-37-2.1-147.9-2.1-184.9 0-35.8 1.7-67.6 9.9-93.9 36.1s-34.4 58-36.2 93.9c-2.1 37-2.1 147.9 0 184.9 1.7 35.9 9.9 67.7 36.2 93.9s58 34.4 93.9 36.2c37 2.1 147.9 2.1 184.9 0 35.9-1.7 67.7-9.9 93.9-36.2 26.2-26.2 34.4-58 36.2-93.9 2.1-37 2.1-147.8 0-184.8zM398.8 388c-7.8 19.6-22.9 34.7-42.6 42.6-29.5 11.7-99.5 9-132.1 9s-102.7 2.6-132.1-9c-19.6-7.8-34.7-22.9-42.6-42.6-11.7-29.5-9-99.5-9-132.1s-2.6-102.7 9-132.1c7.8-19.6 22.9-34.7 42.6-42.6 29.5-11.7 99.5-9 132.1-9s102.7-2.6 132.1 9c19.6 7.8 34.7 22.9 42.6 42.6 11.7 29.5 9 99.5 9 132.1s2.7 102.7-9 132.1z" /></symbol><symbol viewBox="0 0 32 32" id="menu"><path d="M2 6h28v6H2zm0 8h28v6H2zm0 8h28v6H2z" /></symbol><symbol fill="#fff" viewBox="0 0 2048 2048" id="triangle"><path d="M1704 1055l-1328 738q-23 13-39.5 3t-16.5-36v-1472q0-26 16.5-36t39.5 3l1328 738q23 13 23 31t-23 31z" /></symbol><symbol viewBox="0 0 26 28" id="twitter"><path d="M25.312 6.375a10.85 10.85 0 01-2.531 2.609c.016.219.016.438.016.656 0 6.672-5.078 14.359-14.359 14.359-2.859 0-5.516-.828-7.75-2.266.406.047.797.063 1.219.063 2.359 0 4.531-.797 6.266-2.156a5.056 5.056 0 01-4.719-3.5c.313.047.625.078.953.078.453 0 .906-.063 1.328-.172a5.048 5.048 0 01-4.047-4.953v-.063a5.093 5.093 0 002.281.641 5.044 5.044 0 01-2.25-4.203c0-.938.25-1.797.688-2.547a14.344 14.344 0 0010.406 5.281 5.708 5.708 0 01-.125-1.156 5.045 5.045 0 015.047-5.047 5.03 5.03 0 013.687 1.594 9.943 9.943 0 003.203-1.219 5.032 5.032 0 01-2.219 2.781c1.016-.109 2-.391 2.906-.781z" /></symbol></defs></svg>