<svg width="95" height="95" viewBox="0 0 95 95" fill="none" xmlns="http://www.w3.org/2000/svg">
<path d="M0 47.3C0 32.5 0 17.6 0 2.8C0 0.699999 0.3 0 2.7 0C32.5 0.1 62.2 0.1 91.9 0C94.1 0 94.7 0.500001 94.6 2.7C94.4 7.2 94.4 11.7 94.6 16.2C94.7 18.1 94 18.5 92.2 18.5C68.7 18.4 45.2 18.4 21.7 18.5C17.9 18.5 18.4 18 18.4 21.8C18.4 45.1 18.4 68.5 18.5 91.8C18.5 94.3 17.8 94.9 15.5 94.8C11.1 94.6 6.7 94.7 2.3 94.8C0.5 94.9 0.1 94.3 0.1 92.6C0.1 77.4 0 62.3 0 47.3Z" fill="#3B6258"/>
<path d="M38.7 66.8C38.7 58.2 38.7 49.6 38.7 41.1C38.7 39.4 39.2 38.8 40.9 38.8C58.1 38.9 75.2 38.9 92.4 38.8C94.1 38.8 94.7 39.2 94.7 41C94.6 45.7 94.6 50.3 94.7 55C94.7 56.9 94.1 57.4 92.3 57.3C81.6 57.2 70.8 57.3 60.1 57.2C57.7 57.2 57.2 58 57.2 60.2C57.3 70.9 57.2 81.5 57.3 92.2C57.3 94.1 56.9 94.8 54.8 94.8C50.4 94.6 46 94.6 41.6 94.8C39.4 94.9 38.7 94.3 38.7 92C38.7 83.6 38.7 75.2 38.7 66.8Z" fill="#85C3AB"/>
</svg>
